<mxfile host="app.diagrams.net" modified="2024-06-02T19:02:38.327Z" agent="Mozilla/5.0 (Macintosh; Intel Mac OS X 10_15_7) AppleWebKit/537.36 (KHTML, like Gecko) Chrome/125.0.0.0 Safari/537.36" version="24.4.13" etag="BbixezsVMmk0EKRfIKvo" type="github">
  <diagram name="Page-1" id="TN2qP9U7jak2tGhpRL7U">
    <mxGraphModel>
      <root>
        <mxCell id="0" />
        <mxCell id="1" parent="0" />
      </root>
    </mxGraphModel>
  </diagram>
</mxfile>
